# xmcd
# 
# Track frame offsets:
#     150
#     18034
#     34097
#     48250
#     62623
#     76864
#     89431
#     101454
#     115290
#     128306
#     142133
#     153996
#     168311
#     178653
#     193107
#     206280
#     218278
# 
# Disc length: 3072
# 
# Revision: 0
# Processed by: cddbd v1.5.2PL0 Copyright (c) Steve Scherf et al.
# Submitted via: fre:ac v1.0.17
# 
DISCID=d10bfe11
DTITLE=John Lee Hooker - Boogie Chillen - John Lee Hooker
DYEAR=0
DGENRE=Blues
TTITLE0=Wednesday Evening Blues
TTITLE1=My First Wife Left Me
TTITLE2=Boogie Chillen
TTITLE3=Sally Mae
TTITLE4=Henry's Swing Club
TTITLE5=Hobo Blues
TTITLE6=Crawling King Snake
TTITLE7=Alberta
TTITLE8=Do My Baby Think Of Me
TTITLE9=Three Long Years Ago
TTITLE10=Strike Blues
TTITLE11=Grinder Man
TTITLE12=Walkin' This Highway
TTITLE13=Four Women In My Live
TTITLE14=I Need Lovin'
TTITLE15=Find Me A Woman
TTITLE16=I'm In The Mood
EXTD=keine Angaben zu den Daten der Aufnahmen verfügbar YEAR: 2005
EXTT0=
EXTT1=
EXTT2=
EXTT3=
EXTT4=
EXTT5=
EXTT6=
EXTT7=
EXTT8=
EXTT9=
EXTT10=
EXTT11=
EXTT12=
EXTT13=
EXTT14=
EXTT15=
EXTT16=
PLAYORDER=
